<?xml version="1.0" encoding="UTF-8" standalone="no"?>
<svg
   version="1.0"
   width="792.000000pt"
   height="722.000000pt"
   viewBox="0 0 792.000000 722.000000"
   preserveAspectRatio="xMidYMid meet"
   id="svg46"
   sodipodi:docname="tangoappLogo.svg"
   inkscape:version="1.1.2 (b8e25be833, 2022-02-05)"
   xmlns:inkscape="http://www.inkscape.org/namespaces/inkscape"
   xmlns:sodipodi="http://sodipodi.sourceforge.net/DTD/sodipodi-0.dtd"
   xmlns="http://www.w3.org/2000/svg"
   xmlns:svg="http://www.w3.org/2000/svg">
  <defs
     id="defs50" />
  <sodipodi:namedview
     id="namedview48"
     pagecolor="#505050"
     bordercolor="#eeeeee"
     borderopacity="1"
     inkscape:pageshadow="0"
     inkscape:pageopacity="0"
     inkscape:pagecheckerboard="0"
     inkscape:document-units="pt"
     showgrid="false"
     inkscape:zoom="0.8549169"
     inkscape:cx="528.12151"
     inkscape:cy="575.49453"
     inkscape:window-width="1920"
     inkscape:window-height="1009"
     inkscape:window-x="-8"
     inkscape:window-y="-8"
     inkscape:window-maximized="1"
     inkscape:current-layer="svg46" />
  <metadata
     id="metadata2">
Created by potrace 1.16, written by Peter Selinger 2001-2019
</metadata>
  <g
     transform="matrix(0.1,0,0,-0.1,-0.64242745,725.50911)"
     fill="#000000"
     stroke="none"
     id="g44">
    <path
       d="m 4055,6773 c -52,-54 -98,-108 -101,-121 -10,-37 21,-62 78,-62 h 48 l 1,-37 c 1,-114 77,-168 139,-100 15,16 20,35 20,79 v 58 h 55 c 48,0 57,3 72,26 16,24 16,28 -2,59 -23,43 -178,195 -198,195 -9,0 -59,-44 -112,-97 z"
       id="path4" />
    <path
       d="m 3948,6279 c -226,-18 -486,-81 -693,-166 -170,-70 -411,-208 -529,-302 l -39,-31 h 205 206 l 114,55 c 504,242 1092,278 1628,99 212,-71 543,-267 705,-416 130,-119 142,-128 185,-128 111,0 155,94 89,193 -29,45 -169,171 -279,254 -194,144 -487,289 -725,358 -273,79 -576,108 -867,84 z"
       id="path6" />
    <path
       d="m 928,5541 c -65,-7 -110,-41 -129,-98 -22,-69 17,-150 85,-173 23,-7 599,-12 1942,-14 l 1909,-4 3,-1001 2,-1001 h -22 c -13,0 -671,-1 -1463,-2 -1345,-3 -1442,-4 -1472,-20 -72,-40 -97,-117 -61,-188 45,-87 -113,-79 1628,-81 850,-1 1571,-1 1603,0 47,1 62,6 82,26 l 25,24 v 882 882 l 323,-6 c 269,-5 337,-9 412,-25 411,-90 735,-383 901,-814 86,-221 108,-418 102,-908 -4,-328 -7,-350 -61,-409 -45,-49 -63,-51 -411,-51 h -324 l -26,44 c -58,99 -175,205 -292,264 -88,44 -158,62 -269,69 -258,15 -500,-103 -644,-316 l -42,-61 h -438 -437 l -48,70 c -166,242 -450,354 -744,294 -139,-28 -293,-118 -383,-224 l -43,-50 h -688 c -657,0 -691,-1 -726,-19 -82,-42 -105,-155 -49,-239 51,-78 13,-75 1160,-81 l 167,-1 v -51 c 0,-292 154,-547 405,-669 103,-50 194,-71 314,-71 109,-1 160,9 272,52 229,88 406,324 434,577 l 7,62 h 358 359 l 6,-57 c 9,-86 50,-210 92,-283 21,-36 76,-104 124,-151 70,-71 102,-95 170,-127 120,-58 194,-75 324,-75 119,0 174,10 275,50 235,93 414,329 436,574 l 7,68 366,3 366,3 66,32 c 119,59 217,193 248,341 18,85 15,927 -4,1050 -85,569 -432,1073 -905,1316 -245,126 -358,146 -822,146 h -338 v 108 c 0,59 -5,124 -10,144 -18,65 -70,130 -130,163 l -55,30 -1940,1 c -1067,1 -1966,-2 -1997,-5 z M 3360,2529 c 152,-72 232,-247 185,-403 -74,-242 -387,-322 -566,-143 -86,86 -123,209 -95,318 30,117 92,189 203,235 80,34 193,31 273,-7 z m 2153,-2 c 68,-34 130,-100 165,-175 35,-78 35,-183 0,-262 -123,-273 -501,-274 -626,-1 -55,119 -26,269 71,369 73,76 146,103 258,99 58,-3 90,-10 132,-30 z"
       id="path8" />
    <path
       d="m 3154,2350 c -45,-22 -84,-80 -84,-124 0,-42 24,-89 61,-120 30,-25 39,-28 90,-24 71,5 105,27 131,85 17,39 19,52 9,83 -15,50 -47,89 -87,106 -45,19 -72,18 -120,-6 z"
       id="path10" />
    <path
       d="m 5301,2348 c -46,-22 -80,-77 -81,-127 0,-39 37,-105 69,-124 37,-22 103,-22 148,0 103,48 96,205 -11,254 -53,24 -72,24 -125,-3 z"
       id="path12" />
    <path
       d="m 1350,4992 c -39,-40 -49,-95 -24,-140 28,-52 67,-64 195,-60 98,3 110,5 133,27 52,49 54,125 4,179 -20,21 -30,22 -151,22 -128,0 -129,0 -157,-28 z"
       id="path14" />
    <path
       d="m 2055,5011 c -38,-16 -58,-49 -58,-96 0,-88 45,-125 155,-125 107,0 154,43 145,133 -3,39 -11,56 -31,74 -24,20 -37,23 -109,22 -45,0 -91,-4 -102,-8 z"
       id="path16" />
    <path
       d="m 2637,5000 c -58,-46 -52,-144 12,-187 l 34,-23 h 679 c 724,0 718,0 762,49 13,15 20,37 20,71 1,41 -4,54 -28,79 l -30,31 h -712 c -701,0 -712,0 -737,-20 z"
       id="path18" />
    <path
       d="m 873,4633 c -63,-12 -99,-95 -68,-162 34,-76 -26,-71 915,-71 935,0 882,-4 915,66 19,41 19,68 -1,109 -32,68 8,65 -911,64 -455,-1 -838,-4 -850,-6 z"
       id="path20" />
    <path
       d="m 3127,4631 c -63,-9 -89,-36 -94,-98 -5,-57 21,-107 65,-124 15,-6 77,-9 140,-7 l 114,3 29,33 c 24,26 29,41 29,82 0,40 -5,56 -27,80 -27,30 -32,31 -118,35 -49,2 -111,0 -138,-4 z"
       id="path22" />
    <path
       d="m 3685,4595 c -52,-51 -21,-147 51,-161 26,-5 38,0 65,24 29,26 34,36 33,73 -1,33 -8,48 -28,66 -37,31 -89,31 -121,-2 z"
       id="path24" />
    <path
       d="m 5325,4049 v -434 l 595,2 595,2 -3,23 c -8,60 -47,191 -78,262 -119,276 -341,481 -593,548 -61,16 -119,21 -296,25 l -220,6 z"
       id="path26" />
    <path
       d="m 2165,4240 c -11,-4 -31,-20 -45,-35 -20,-22 -25,-37 -25,-82 0,-49 3,-58 33,-84 l 32,-29 h 951 951 l 35,35 c 33,33 35,39 31,84 -6,56 -31,96 -72,111 -35,12 -1860,13 -1891,0 z"
       id="path28" />
    <path
       d="m 905,3801 c -53,-9 -82,-29 -100,-67 -31,-66 -5,-151 55,-181 20,-10 359,-13 1595,-13 1521,0 1571,1 1612,19 103,47 95,191 -14,237 -27,12 -288,14 -1570,13 -846,-1 -1556,-5 -1578,-8 z"
       id="path30" />
    <path
       d="m 5940,3211 c -99,-54 -99,-214 0,-263 66,-33 137,-20 189,36 18,19 26,41 29,79 5,60 -9,96 -52,136 -35,33 -117,39 -166,12 z"
       id="path32" />
    <path
       d="m 6415,3212 c -50,-32 -68,-59 -73,-111 -6,-67 2,-93 40,-130 56,-54 144,-54 204,2 64,58 64,152 0,215 -29,30 -43,36 -88,39 -40,3 -60,-1 -83,-15 z"
       id="path34" />
    <path
       d="m 832,3182 c -54,-50 -52,-140 4,-193 24,-23 34,-24 165,-27 l 140,-4 39,40 c 36,35 40,45 40,89 0,48 -16,84 -50,110 -10,8 -62,12 -161,13 H 862 Z"
       id="path36" />
    <path
       d="m 1264,2040 c -58,-23 -82,-107 -49,-170 25,-49 60,-60 187,-60 166,0 205,29 199,149 -1,12 -16,38 -35,57 l -34,34 -123,-1 c -68,0 -134,-4 -145,-9 z"
       id="path38" />
    <path
       d="m 1959,1905 c -54,-29 -64,-132 -18,-181 21,-22 30,-24 121,-24 110,0 131,7 153,50 25,48 19,103 -14,139 -29,30 -31,31 -123,31 -61,-1 -102,-6 -119,-15 z"
       id="path40" />
    <path
       d="m 4133,1655 c -12,-8 -31,-40 -42,-70 -12,-30 -30,-80 -42,-110 -20,-53 -22,-55 -58,-55 -50,0 -99,-18 -111,-40 -26,-48 -14,-68 127,-211 115,-117 141,-139 166,-139 25,0 51,21 154,123 160,157 174,182 130,233 -18,21 -35,28 -81,33 l -58,6 -39,105 c -49,134 -87,166 -146,125 z"
       id="path42" />
  </g>
  <text
     xml:space="preserve"
     style="font-style:normal;font-weight:normal;font-size:44.7338px;line-height:1.25;font-family:sans-serif;fill:#000000;fill-opacity:1;stroke:none;stroke-width:1.11834"
     x="103.01141"
     y="690.00964"
     id="text2739"><tspan
       sodipodi:role="line"
       id="tspan2737"
       style="font-style:normal;font-variant:normal;font-weight:normal;font-stretch:normal;font-size:107.361px;font-family:'Cooper Black';-inkscape-font-specification:'Cooper Black, Normal';font-variant-ligatures:normal;font-variant-caps:normal;font-variant-numeric:normal;font-variant-east-asian:normal;stroke-width:1.11834"
       x="103.01141"
       y="690.00964">Tango App</tspan></text>
</svg>
